<svg width="60" height="60" viewBox="0 0 60 60" fill="none" xmlns="http://www.w3.org/2000/svg">
<g clip-path="url(#clip0_2_2007)">
<path d="M30 60C13.4319 60 0 46.5681 0 30C0 13.4319 13.4319 7.36877e-07 30 7.36877e-07C46.5681 7.36877e-07 60 13.4319 60 30C60 46.5681 46.5681 60 30 60ZM58.0492 30C58.0492 14.5096 45.4921 1.95085 30 1.95085C14.5079 1.95085 1.95085 14.5096 1.95085 30C1.95085 45.4904 14.5096 58.0492 30 58.0492C45.4904 58.0492 58.0492 45.4904 58.0492 30Z" fill="#6F6F6F"/>
<path d="M30 47.7905V46.815C39.271 46.815 46.8151 39.2727 46.8151 30H47.7905C47.7905 39.8248 39.8248 47.7905 30 47.7905ZM30 13.185C20.7291 13.185 13.185 20.7273 13.185 30H12.2096C12.2096 20.1752 20.1753 12.2095 30 12.2095" fill="#6F6F6F"/>
<path d="M44.5397 42.7281C44.9471 42.2907 45.5345 41.5851 45.8643 41.1565L51.9391 45.0123C51.5672 45.496 51.1843 45.9712 50.7908 46.4376L46.9438 43.894L46.681 43.6683L46.8768 43.954L48.5754 47.3442L47.3742 48.5454L43.9823 46.8468L43.6965 46.651L43.9241 46.9138L46.4693 50.7591C46.0213 51.1401 45.5909 51.4893 45.0424 51.9126L41.1865 45.8431C41.6751 45.4674 42.3189 44.9153 42.7299 44.5396L46.36 46.4234L46.5928 46.5945L46.4217 46.3617L44.5397 42.7281Z" fill="#6F6F6F"/>
<path d="M30.7549 50.4204L32.4147 54.1386L32.5205 54.4685L32.4906 54.1245L32.6652 49.1557C33.2473 49.101 33.8487 49.0199 34.4414 48.9211L34.1715 56.28C33.3425 56.3717 32.517 56.437 31.6915 56.4723L30.0564 52.4136L29.9982 52.112L29.94 52.4136L28.3066 56.4723C27.4812 56.437 26.6557 56.3717 25.8266 56.28L25.5568 48.9211C26.1494 49.0199 26.7509 49.0993 27.333 49.1557L27.5076 54.1245L27.4776 54.4685L27.5835 54.1386L29.2433 50.4204H30.7549Z" fill="#6F6F6F"/>
<path d="M17.3301 44.5555C18.2897 45.5662 18.833 46.7339 17.8734 47.8487C17.3513 48.4537 16.4746 48.586 15.7479 48.2879L15.6756 48.2596L15.6985 48.3231C15.8061 48.6107 15.8749 49.5279 15.0935 50.1611C14.7125 50.4698 14.2345 50.5844 13.7512 50.535C12.8499 50.4433 12.1567 49.8277 10.2693 47.7234C9.6996 47.0884 8.87058 46.0866 8.37317 45.4374L13.5572 40.5198C15.2752 42.4212 15.9755 43.1285 17.3301 44.5555ZM10.5657 45.7585C11.6099 47.0355 12.7194 48.1944 13.2221 48.653C13.3808 48.7976 13.5537 48.9423 13.7636 48.9987C14.104 49.0922 14.455 48.8505 14.5344 48.5013C14.6138 48.1503 14.3933 47.8169 14.1481 47.5417C13.596 46.9191 11.5711 44.8007 11.5711 44.8007L10.5657 45.7585ZM12.5959 43.8323C12.5959 43.8323 14.5679 45.9172 15.2117 46.584C15.4675 46.8485 15.6315 47.0091 15.8079 47.0955C16.0354 47.2066 16.2842 47.2295 16.5064 47.0814C16.7251 46.935 16.8257 46.6827 16.771 46.4323C16.7057 46.1342 16.4623 45.8502 16.2612 45.6332C15.9896 45.3422 13.6507 42.8393 13.6472 42.8357L12.5959 43.8323Z" fill="#6F6F6F"/>
<path d="M30 47.7905V30H12.2096C12.2096 39.8318 20.1682 47.7905 30 47.7905ZM47.7905 30C47.7905 20.1682 39.8319 12.2095 30 12.2095V30H47.7905Z" fill="#0066B1"/>
</g>
<defs>
<clipPath id="clip0_2_2007">
<rect width="60" height="60" fill="white" transform="matrix(1 0 0 -1 0 60)"/>
</clipPath>
</defs>
</svg>
