<svg width="75" height="12" viewBox="0 0 75 12" fill="none" xmlns="http://www.w3.org/2000/svg">
<g clip-path="url(#clip0_2_2453)">
<path d="M38.0724 5.55671C38.1364 5.02703 38.3906 4.53999 38.7866 4.18906C39.1825 3.83814 39.6921 3.64805 40.2176 3.65527C40.7287 3.65344 41.2214 3.84878 41.596 4.20178C41.9707 4.55477 42.1995 5.03907 42.2358 5.55671H38.0724ZM32.291 8.54729C31.988 8.55272 31.6873 8.49365 31.4082 8.37388C31.1291 8.25411 30.8778 8.07629 30.6705 7.8519C30.4632 7.6275 30.3047 7.3615 30.2048 7.07102C30.1049 6.78055 30.066 6.47206 30.0907 6.16541C30.0674 5.85823 30.107 5.54948 30.2072 5.25867C30.3074 4.96786 30.4659 4.7013 30.6727 4.47584C30.8795 4.25038 31.1301 4.07091 31.4087 3.94877C31.6872 3.82663 31.9876 3.76447 32.291 3.76622C32.5921 3.7698 32.8894 3.83575 33.1645 3.96004C33.4396 4.08433 33.6869 4.26434 33.8912 4.48905C34.0954 4.71375 34.2523 4.97842 34.3523 5.26685C34.4522 5.55527 34.493 5.86138 34.4724 6.16643C34.4901 6.46999 34.4469 6.77404 34.3456 7.06022C34.2444 7.34641 34.0872 7.6088 33.8833 7.83158C33.6795 8.05435 33.4333 8.23289 33.1596 8.35642C32.8859 8.47996 32.5904 8.54592 32.291 8.55034V8.54729ZM20.528 8.54729C20.2268 8.54385 19.9295 8.478 19.6542 8.35377C19.379 8.22954 19.1316 8.04955 18.9273 7.82483C18.723 7.60011 18.566 7.3354 18.466 7.0469C18.3659 6.75841 18.3249 6.45222 18.3456 6.14709C18.3265 5.8432 18.3686 5.53856 18.4694 5.25178C18.5702 4.96499 18.7275 4.7021 18.9317 4.47916C19.136 4.25622 19.383 4.07792 19.6574 3.95516C19.9318 3.83241 20.2281 3.76777 20.528 3.7652C20.8304 3.76148 21.1303 3.82172 21.4086 3.94209C21.6868 4.06246 21.9374 4.24032 22.1443 4.46436C22.3512 4.6884 22.5099 4.95371 22.6103 5.24342C22.7107 5.53312 22.7506 5.84087 22.7275 6.14709C22.7512 6.45447 22.7117 6.76351 22.6117 7.05467C22.5118 7.34583 22.3537 7.61278 22.147 7.83864C21.9403 8.06451 21.6897 8.24437 21.411 8.36687C21.1323 8.48938 20.8316 8.55185 20.528 8.55034V8.54729ZM25.7279 9.63644H27.1092V0H25.7279V9.63644ZM38.0585 6.62754H43.5721C43.589 6.41865 43.5948 6.20902 43.59 5.99949C43.5986 5.54127 43.5162 5.08601 43.3474 4.66095C43.1787 4.23589 42.927 3.84977 42.6078 3.5257C42.2887 3.20164 41.9084 2.94628 41.4898 2.77493C41.0712 2.60358 40.6229 2.51975 40.1716 2.52846C39.7081 2.53482 39.2504 2.63404 38.8248 2.82044C38.3991 3.00683 38.014 3.27673 37.6913 3.61464C37.3687 3.95255 37.1149 4.35182 36.9446 4.78955C36.7743 5.22727 36.6908 5.69484 36.6989 6.16541C36.6803 6.64725 36.7604 7.12777 36.9341 7.57658C37.1077 8.0254 37.3711 8.43275 37.7077 8.77286C38.0444 9.11297 38.447 9.37844 38.8899 9.5525C39.3328 9.72655 39.8063 9.80539 40.2808 9.78404C40.8925 9.83797 41.5069 9.71334 42.0513 9.42481C42.5956 9.13628 43.0474 8.69587 43.3536 8.1554L42.2267 7.43574C42.071 7.80551 41.8007 8.11365 41.457 8.31349C41.1133 8.51333 40.7148 8.59398 40.3219 8.54322C39.7784 8.56161 39.2472 8.37666 38.8292 8.02349C38.4111 7.67033 38.1353 7.17355 38.0543 6.62754H38.0585ZM47.1129 9.78302C48.767 9.78302 49.8587 8.98906 49.8587 7.64543C49.8587 5.10069 46.0042 5.87327 46.0042 4.45127C46.0042 3.97082 46.386 3.63695 47.0948 3.63695C47.3722 3.61331 47.6494 3.68384 47.8831 3.83748C48.1168 3.99112 48.2938 4.21918 48.3861 4.48588L49.622 4.00543C49.4216 3.51538 49.0671 3.10651 48.6137 2.84263C48.1603 2.57875 47.6336 2.47472 47.1158 2.54678C45.5519 2.54678 44.5526 3.3041 44.5526 4.54084C44.5526 6.92272 48.4071 6.23971 48.4071 7.75333C48.4071 8.32539 47.9159 8.65824 47.153 8.65824C46.7927 8.70416 46.4279 8.62032 46.1221 8.42131C45.8164 8.2223 45.589 7.92073 45.4797 7.56909L44.2256 8.04954C44.456 8.61692 44.862 9.0929 45.382 9.40574C45.902 9.71859 46.5079 9.85135 47.1087 9.78404L47.1129 9.78302ZM22.7674 2.69438V3.87616C22.5027 3.47672 22.1414 3.15316 21.7179 2.93657C21.2945 2.71997 20.8232 2.61764 20.3495 2.63941C19.8952 2.63028 19.4437 2.71595 19.0233 2.89112C18.6028 3.06628 18.2223 3.32721 17.9053 3.65775C17.5882 3.98829 17.3415 4.3814 17.1801 4.81275C17.0187 5.24409 16.9462 5.70448 16.9671 6.16541C16.9398 6.6332 17.0069 7.10173 17.1646 7.54214C17.3223 7.98256 17.5671 8.38553 17.884 8.72624C18.2008 9.06696 18.5831 9.3382 19.0071 9.52327C19.4311 9.70834 19.888 9.80332 20.3495 9.80236C20.828 9.81575 21.3018 9.70385 21.7253 9.47744C22.1488 9.25103 22.5075 8.91773 22.7674 8.50963V9.63542H24.0406V2.69539L22.7674 2.69438ZM32.4765 2.54678C32.0016 2.53323 31.5307 2.63903 31.1057 2.85479C30.6807 3.07055 30.3148 3.38958 30.0405 3.78353V2.69438H28.7674V11.999H30.1487V8.71423C30.4234 9.06511 30.7747 9.34621 31.1749 9.53526C31.5752 9.72431 32.0133 9.81611 32.4545 9.80338C32.9142 9.80346 33.3691 9.70852 33.7915 9.52431C34.2139 9.34011 34.5948 9.07052 34.9113 8.73196C35.2277 8.39339 35.4732 7.99295 35.6323 7.55503C35.7914 7.11711 35.861 6.65088 35.8369 6.18475C35.8652 5.71811 35.7992 5.25053 35.6431 4.81073C35.4869 4.37093 35.2437 3.9682 34.9286 3.6273C34.6135 3.28639 34.233 3.0145 33.8106 2.82834C33.3883 2.64217 32.933 2.54567 32.4726 2.54475L32.4765 2.54678Z" fill="black"/>
<path d="M67.6717 5.74199C67.6882 5.07518 67.9628 4.44181 68.4358 3.9789C68.9088 3.516 69.5421 3.26079 70.199 3.26849C70.5196 3.26262 70.8382 3.32272 71.1354 3.44518C71.4325 3.56763 71.7022 3.74992 71.9281 3.98103C72.154 4.21215 72.3315 4.48732 72.4499 4.78996C72.5683 5.0926 72.6252 5.41645 72.6171 5.74199H67.6717ZM54.2897 8.99112C53.9284 8.99765 53.5695 8.92804 53.236 8.78669C52.9026 8.64533 52.6017 8.4353 52.3522 8.16985C52.1028 7.90441 51.9103 7.58932 51.7869 7.24449C51.6634 6.89966 51.6118 6.53259 51.6351 6.16645C51.6107 5.80006 51.6616 5.43252 51.7847 5.08721C51.9077 4.74189 52.1001 4.42637 52.3498 4.16069C52.5995 3.89501 52.9008 3.68501 53.2348 3.54402C53.5687 3.40304 53.9281 3.33416 54.2897 3.34178C54.65 3.33565 55.0076 3.40569 55.3399 3.54744C55.6722 3.6892 55.9718 3.89957 56.2197 4.1652C56.4677 4.43083 56.6586 4.74591 56.7802 5.09043C56.9018 5.43495 56.9514 5.80138 56.9261 6.16645C56.9514 6.53143 56.9017 6.89777 56.7802 7.24222C56.6587 7.58667 56.4681 7.9017 56.2202 8.16732C55.9724 8.43293 55.6728 8.64333 55.3406 8.78514C55.0084 8.92696 54.65 8.9971 54.2897 8.99112ZM62.5621 2.54782C62.0786 2.53063 61.599 2.64268 61.1715 2.87276C60.7439 3.10284 60.3836 3.44289 60.1261 3.85887V2.69542H59.308V9.63646H60.1631V5.27986C60.2062 4.72682 60.4606 4.21276 60.8716 3.84729C61.2827 3.48183 61.818 3.29385 62.3636 3.32346C62.6565 3.29762 62.9515 3.33816 63.2271 3.44214C63.5027 3.54611 63.7522 3.71094 63.9574 3.92471C64.1627 4.13848 64.3185 4.39586 64.4139 4.67826C64.5092 4.96067 64.5417 5.26106 64.5088 5.55774V9.61916H65.3821V5.42746C65.4191 5.04148 65.3717 4.65196 65.2433 4.28671C65.115 3.92146 64.9088 3.58947 64.6395 3.31442C64.3703 3.03938 64.0447 2.82806 63.6857 2.69555C63.3268 2.56304 62.9425 2.5126 62.5621 2.54782ZM67.6749 6.40667H73.4379C73.4539 6.27807 73.46 6.14841 73.456 6.01885C73.4792 5.5693 73.4115 5.1197 73.2571 4.69772C73.1027 4.27574 72.8649 3.89032 72.5583 3.56516C72.2517 3.24001 71.8828 2.98202 71.4743 2.80706C71.0658 2.6321 70.6264 2.54387 70.183 2.54782C69.7257 2.55564 69.2745 2.65595 68.8558 2.84289C68.4371 3.02983 68.0592 3.29965 67.7444 3.63657C67.4296 3.97348 67.184 4.37075 67.0221 4.80513C66.8603 5.23952 66.7853 5.70231 66.8016 6.16645C66.7769 6.63578 66.8473 7.10528 67.0084 7.54588C67.1696 7.98649 67.4181 8.38883 67.7385 8.72802C68.0589 9.06721 68.4443 9.33603 68.8712 9.51785C69.298 9.69967 69.7571 9.79062 70.22 9.78508C70.8599 9.83964 71.5005 9.68906 72.0517 9.35453C72.6029 9.02001 73.0371 8.51839 73.2928 7.92029L72.6381 7.51313C72.4672 8.0011 72.139 8.41612 71.7066 8.69087C71.2742 8.96562 70.7632 9.08398 70.2562 9.02674C69.9165 9.02904 69.5798 8.96286 69.2655 8.83205C68.9512 8.70125 68.6654 8.50841 68.425 8.26471C68.1846 8.02101 67.9944 7.73129 67.865 7.41235C67.7357 7.09341 67.67 6.75158 67.6717 6.40667H67.6749ZM54.2715 9.78508C54.7403 9.79718 55.2064 9.71143 55.6412 9.53313C56.0759 9.35483 56.4699 9.08778 56.7988 8.74853C57.1277 8.40928 57.3848 8.00505 57.5536 7.5609C57.7224 7.11674 57.7995 6.64213 57.7802 6.16645C57.7995 5.69077 57.7224 5.21615 57.5536 4.772C57.3848 4.32785 57.1277 3.92362 56.7988 3.58437C56.4699 3.24512 56.0759 2.97807 55.6412 2.79977C55.2064 2.62147 54.7403 2.53571 54.2715 2.54782C53.8024 2.5342 53.3356 2.61893 52.9002 2.7967C52.4648 2.97447 52.0701 3.24147 51.7409 3.58104C51.4116 3.92061 51.1548 4.32544 50.9866 4.77028C50.8183 5.21511 50.7421 5.6904 50.7629 6.16645C50.7452 6.64171 50.8235 7.11561 50.9929 7.55902C51.1623 8.00244 51.4191 8.406 51.7477 8.74491C52.0763 9.08382 52.4699 9.35092 52.9039 9.52979C53.3379 9.70867 53.8033 9.79554 54.2715 9.78508Z" fill="black"/>
<path fill-rule="evenodd" clip-rule="evenodd" d="M74.3823 9.17633H74.5638C74.5999 9.17633 74.6179 9.19465 74.6179 9.21297C74.6179 9.23129 74.5999 9.24961 74.5638 9.24961H74.3823V9.17633ZM74.2912 9.10202V9.47152H74.3823V9.34224H74.5457L74.637 9.47152H74.7463L74.655 9.34224C74.6739 9.33432 74.6905 9.32167 74.7033 9.30547C74.7161 9.28928 74.7247 9.27007 74.7282 9.24961V9.23129C74.7251 9.19971 74.7103 9.17054 74.6866 9.14986C74.6628 9.12919 74.6321 9.11862 74.6009 9.12034H74.2922L74.2912 9.10202ZM74.4916 8.86179C74.598 8.86179 74.7 8.90469 74.7752 8.98105C74.8504 9.05741 74.8926 9.16097 74.8926 9.26896C74.8926 9.37694 74.8504 9.4805 74.7752 9.55686C74.7 9.63322 74.598 9.67612 74.4916 9.67612C74.3853 9.67612 74.2833 9.63322 74.2081 9.55686C74.1329 9.4805 74.0906 9.37694 74.0906 9.26896C74.0906 9.16115 74.1327 9.05774 74.2077 8.98141C74.2827 8.90508 74.3854 8.86206 74.4916 8.86179ZM74.4916 8.76917C74.5585 8.76903 74.6248 8.78232 74.6867 8.80826C74.7485 8.83419 74.8047 8.87228 74.852 8.92032C74.8993 8.96837 74.9369 9.02542 74.9624 9.08822C74.9879 9.15102 75.0011 9.21831 75.0009 9.28626C75.0011 9.3542 74.9879 9.4215 74.9624 9.4843C74.9369 9.5471 74.8993 9.60415 74.852 9.6522C74.8047 9.70024 74.7485 9.73832 74.6867 9.76426C74.6248 9.7902 74.5585 9.80349 74.4916 9.80335C74.4247 9.80349 74.3584 9.7902 74.2966 9.76426C74.2347 9.73832 74.1785 9.70024 74.1312 9.6522C74.0839 9.60415 74.0464 9.5471 74.0208 9.4843C73.9953 9.4215 73.9823 9.3542 73.9824 9.28626C73.9823 9.2184 73.9952 9.15119 74.0207 9.08846C74.0462 9.02572 74.0837 8.96871 74.1309 8.92068C74.1781 8.87265 74.2342 8.83455 74.2959 8.80855C74.3577 8.78255 74.4248 8.76917 74.4916 8.76917Z" fill="black"/>
<path fill-rule="evenodd" clip-rule="evenodd" d="M14.3097 9.17633H14.4913C14.5273 9.17633 14.5453 9.19465 14.5453 9.21297C14.5453 9.23129 14.5273 9.24961 14.4913 9.24961H14.3097V9.17633ZM14.2184 9.10202V9.47152H14.3097V9.34224H14.4731L14.5644 9.47152H14.6736L14.5823 9.34224C14.6012 9.3344 14.618 9.32178 14.6308 9.30557C14.6436 9.28936 14.652 9.2701 14.6555 9.24961V9.23129C14.6524 9.19971 14.6376 9.17054 14.6139 9.14986C14.5902 9.12919 14.5594 9.11862 14.5282 9.12034H14.2196L14.2184 9.10202ZM14.4191 8.86179C14.5254 8.86179 14.6273 8.90469 14.7025 8.98105C14.7777 9.05741 14.8199 9.16097 14.8199 9.26895C14.8199 9.37694 14.7777 9.4805 14.7025 9.55686C14.6273 9.63322 14.5254 9.67612 14.4191 9.67612C14.3127 9.67612 14.2106 9.63322 14.1354 9.55686C14.0602 9.4805 14.0179 9.37694 14.0179 9.26895C14.015 9.2148 14.0236 9.16064 14.0426 9.10999C14.0617 9.05933 14.0911 9.01331 14.1288 8.97492C14.1665 8.93652 14.2116 8.90661 14.2614 8.88712C14.3113 8.86763 14.3657 8.859 14.4191 8.86179ZM14.4191 8.76917C14.486 8.76903 14.5523 8.78232 14.6141 8.80826C14.676 8.83419 14.732 8.87228 14.7793 8.92032C14.8266 8.96837 14.8642 9.02542 14.8897 9.08822C14.9152 9.15102 14.9283 9.21831 14.9281 9.28626C14.9283 9.3542 14.9152 9.4215 14.8897 9.4843C14.8642 9.5471 14.8266 9.60415 14.7793 9.6522C14.732 9.70024 14.676 9.73832 14.6141 9.76426C14.5523 9.7902 14.486 9.80349 14.4191 9.80335C14.3519 9.80445 14.285 9.79183 14.2228 9.76623C14.1605 9.74063 14.1038 9.70259 14.0563 9.65435C14.0088 9.60611 13.9714 9.54867 13.9462 9.48543C13.921 9.4222 13.9086 9.35447 13.9097 9.28626C13.9096 9.2184 13.9227 9.15119 13.9482 9.08846C13.9736 9.02572 14.0111 8.96871 14.0583 8.92068C14.1055 8.87265 14.1615 8.83455 14.2233 8.80855C14.285 8.78255 14.3522 8.76917 14.4191 8.76917Z" fill="#00D9B6"/>
<path fill-rule="evenodd" clip-rule="evenodd" d="M4.29058 3.24911H7.218C7.27181 3.24829 7.3247 3.26359 7.36999 3.2931C7.41528 3.32261 7.45086 3.36502 7.47254 3.41503L10.7637 9.80234H13.6367C13.6367 9.80234 10.9822 4.81464 10.073 3.1005C9.98362 2.92907 9.85026 2.78538 9.68701 2.68467C9.52376 2.58396 9.33665 2.52998 9.14563 2.52844H5.29111C5.10009 2.52998 4.91298 2.58396 4.74973 2.68467C4.58648 2.78538 4.45312 2.92907 4.36376 3.1005L4.29058 3.24911ZM6.90913 3.56263H4.12734L0.819092 9.78402H3.69218L6.90913 3.56263Z" fill="#00D9B6"/>
</g>
<defs>
<clipPath id="clip0_2_2453">
<rect width="74.1818" height="12" fill="white" transform="translate(0.818115)"/>
</clipPath>
</defs>
</svg>
